<svg width="157" height="53" viewBox="0 0 157 53" fill="none" xmlns="http://www.w3.org/2000/svg">
<path d="M37.7147 6.94238V12.0371L5.99012 26.0928L37.7147 40.0762V45.207L0.714729 28.6943V23.4189L37.7147 6.94238ZM77.2744 41.8467C77.2744 43.3402 76.9853 44.7493 76.4072 46.0742C75.8532 47.3991 75.0823 48.5553 74.0947 49.543C73.1071 50.5306 71.9508 51.3135 70.6259 51.8916C69.3011 52.4456 67.8919 52.7227 66.3984 52.7227H63.4355C61.942 52.7227 60.5328 52.4456 59.208 51.8916C57.8831 51.3135 56.7268 50.5306 55.7392 49.543C54.7516 48.5553 53.9687 47.3991 53.3906 46.0742C52.8366 44.7493 52.5595 43.3402 52.5595 41.8467V0.185547H57.0039V18.1074C58.0156 16.903 59.2321 15.9635 60.6533 15.2891C62.0745 14.6146 63.6162 14.2773 65.2783 14.2773H66.3984C67.8919 14.2773 69.3011 14.5664 70.6259 15.1445C71.9508 15.6986 73.1071 16.4694 74.0947 17.457C75.0823 18.4447 75.8532 19.6009 76.4072 20.9258C76.9853 22.2507 77.2744 23.6598 77.2744 25.1533V41.8467ZM72.83 24.9004C72.83 24.0091 72.6614 23.1781 72.3242 22.4072C71.9869 21.6123 71.5293 20.9258 70.9511 20.3477C70.373 19.7695 69.6865 19.3118 68.8916 18.9746C68.1207 18.6374 67.2897 18.4688 66.3984 18.4688H63.4355C62.5442 18.4688 61.7011 18.6374 60.9062 18.9746C60.1354 19.3118 59.4609 19.7695 58.8828 20.3477C58.3046 20.9258 57.847 21.6123 57.5097 22.4072C57.1725 23.1781 57.0039 24.0091 57.0039 24.9004V42.0996C57.0039 42.9909 57.1725 43.834 57.5097 44.6289C57.847 45.3997 58.3046 46.0742 58.8828 46.6523C59.4609 47.2305 60.1354 47.6882 60.9062 48.0254C61.7011 48.3626 62.5442 48.5312 63.4355 48.5312H66.3984C67.2897 48.5312 68.1207 48.3626 68.8916 48.0254C69.6865 47.6882 70.373 47.2305 70.9511 46.6523C71.5293 46.0742 71.9869 45.3997 72.3242 44.6289C72.6614 43.834 72.83 42.9909 72.83 42.0996V24.9004ZM102.959 19.2275C102.068 19.2275 101.225 19.3962 100.43 19.7334C99.6589 20.0706 98.9844 20.5283 98.4063 21.1064C97.8282 21.6846 97.3705 22.3711 97.0332 23.166C96.696 23.9368 96.5274 24.7679 96.5274 25.6592V52H92.083V15H93.5645L95.9854 18.7578C96.9971 17.3848 98.2618 16.3008 99.7793 15.5059C101.321 14.6868 102.995 14.2773 104.802 14.2773H107.403V19.2275H102.959ZM150.901 26.0928L119.249 12.0371V6.94238L156.249 23.4189V28.6943L119.249 45.207V40.0762L150.901 26.0928Z" fill="white"/>
</svg>
