<svg width="155" height="52" viewBox="0 0 155 52" fill="none" xmlns="http://www.w3.org/2000/svg">
<path d="M37.0674 6.94238V12.0371L5.34277 26.0928L37.0674 40.0762V45.207L0.0673828 28.6943V23.4189L37.0674 6.94238ZM66.2627 52V24.9004C66.2627 24.0091 66.0941 23.1781 65.7568 22.4072C65.4196 21.6123 64.9619 20.9258 64.3838 20.3477C63.8057 19.7695 63.1191 19.3118 62.3242 18.9746C61.5534 18.6374 60.7223 18.4688 59.8311 18.4688H56.8682C55.9769 18.4688 55.1338 18.6374 54.3389 18.9746C53.568 19.3118 52.8936 19.7695 52.3154 20.3477C51.7373 20.9258 51.2796 21.6123 50.9424 22.4072C50.6051 23.1781 50.4365 24.0091 50.4365 24.9004V52H45.9922V0.185547H50.4365V18.1074C51.4482 16.903 52.6647 15.9635 54.0859 15.2891C55.5072 14.6146 57.0488 14.2773 58.7109 14.2773H59.8311C61.3245 14.2773 62.7337 14.5664 64.0586 15.1445C65.3835 15.6986 66.5397 16.4694 67.5273 17.457C68.515 18.4447 69.2858 19.6009 69.8398 20.9258C70.418 22.2507 70.707 23.6598 70.707 25.1533V52H66.2627ZM81.0771 52V47.5557H93.4346V4.62988L81.0771 9.83301V5.38867L93.4346 0.185547H98.0957V47.5557H110.453V52H81.0771ZM149.549 26.0928L117.896 12.0371V6.94238L154.896 23.4189V28.6943L117.896 45.207V40.0762L149.549 26.0928Z" fill="white"/>
</svg>
