<svg width="755" height="227" viewBox="0 0 755 227" fill="none" xmlns="http://www.w3.org/2000/svg">
<path d="M15.3 99C10.6333 99 6.9 97.6333 4.1 94.9C1.36667 92.1667 0 88.5 0 83.9C0 79.0333 1.43333 75.2667 4.3 72.6C7.23333 69.8667 11.5333 68.5 17.2 68.5H54C59.7333 68.5 64.0333 69.8667 66.9 72.6C69.7667 75.2667 71.2 79.0333 71.2 83.9C71.2 88.5 69.8 92.1667 67 94.9C64.2667 97.6333 60.5667 99 55.9 99C52.1667 99 49.2 98.3 47 96.9C44.8667 95.5 43.3333 93.6333 42.4 91.3C41.5333 88.9667 41.1 86.4 41.1 83.6V42.4C41.1 39.6 41.5333 37.0333 42.4 34.7C43.3333 32.3667 44.8667 30.5 47 29.1C49.2 27.7 52.1667 27 55.9 27C60.5667 27 64.2667 28.3667 67 31.1C69.8 33.8333 71.2 37.5 71.2 42.1C71.2 46.9667 69.7667 50.7667 66.9 53.5C64.0333 56.1667 59.7333 57.5 54 57.5H17.2C11.5333 57.5 7.23333 56.1667 4.3 53.5C1.43333 50.7667 0 46.9667 0 42.1C0 37.5 1.36667 33.8333 4.1 31.1C6.9 28.3667 10.6333 27 15.3 27C19.0333 27 21.9667 27.7 24.1 29.1C26.3 30.5 27.8333 32.3667 28.7 34.7C29.6333 37.0333 30.1 39.6 30.1 42.4V83.6C30.1 86.4 29.6333 88.9667 28.7 91.3C27.8333 93.6333 26.3 95.5 24.1 96.9C21.9667 98.3 19.0333 99 15.3 99ZM15.3 92.1C17.9 92.1 19.8333 91.3667 21.1 89.9C22.4333 88.3667 23.1 86.3333 23.1 83.8V42.2C23.1 39.6667 22.4333 37.6667 21.1 36.2C19.8333 34.6667 17.9 33.9 15.3 33.9C12.9667 33.9 11 34.5333 9.4 35.8C7.86667 37.0667 7.1 39.1667 7.1 42.1C7.1 44.9667 7.9 47.1333 9.5 48.6C11.1 50 13.6667 50.7 17.2 50.7H54C57.5333 50.7 60.1 50 61.7 48.6C63.3 47.1333 64.1 44.9667 64.1 42.1C64.1 39.1667 63.3 37.0667 61.7 35.8C60.1667 34.5333 58.2333 33.9 55.9 33.9C53.3 33.9 51.3333 34.6667 50 36.2C48.7333 37.6667 48.1 39.6667 48.1 42.2V83.8C48.1 86.3333 48.7333 88.3667 50 89.9C51.3333 91.3667 53.3 92.1 55.9 92.1C58.2333 92.1 60.1667 91.4667 61.7 90.2C63.3 88.9333 64.1 86.8333 64.1 83.9C64.1 81.0333 63.3 78.9 61.7 77.5C60.1 76.0333 57.5333 75.3 54 75.3H17.2C13.6667 75.3 11.1 76.0333 9.5 77.5C7.9 78.9 7.1 81.0333 7.1 83.9C7.1 86.8333 7.86667 88.9333 9.4 90.2C11 91.4667 12.9667 92.1 15.3 92.1Z" fill="white"/>
<path d="M15.3 99C10.6333 99 6.9 97.6333 4.1 94.9C1.36667 92.1667 0 88.5 0 83.9C0 79.0333 1.43333 75.2667 4.3 72.6C7.23333 69.8667 11.5333 68.5 17.2 68.5H54C59.7333 68.5 64.0333 69.8667 66.9 72.6C69.7667 75.2667 71.2 79.0333 71.2 83.9C71.2 88.5 69.8 92.1667 67 94.9C64.2667 97.6333 60.5667 99 55.9 99C52.1667 99 49.2 98.3 47 96.9C44.8667 95.5 43.3333 93.6333 42.4 91.3C41.5333 88.9667 41.1 86.4 41.1 83.6V42.4C41.1 39.6 41.5333 37.0333 42.4 34.7C43.3333 32.3667 44.8667 30.5 47 29.1C49.2 27.7 52.1667 27 55.9 27C60.5667 27 64.2667 28.3667 67 31.1C69.8 33.8333 71.2 37.5 71.2 42.1C71.2 46.9667 69.7667 50.7667 66.9 53.5C64.0333 56.1667 59.7333 57.5 54 57.5H17.2C11.5333 57.5 7.23333 56.1667 4.3 53.5C1.43333 50.7667 0 46.9667 0 42.1C0 37.5 1.36667 33.8333 4.1 31.1C6.9 28.3667 10.6333 27 15.3 27C19.0333 27 21.9667 27.7 24.1 29.1C26.3 30.5 27.8333 32.3667 28.7 34.7C29.6333 37.0333 30.1 39.6 30.1 42.4V83.6C30.1 86.4 29.6333 88.9667 28.7 91.3C27.8333 93.6333 26.3 95.5 24.1 96.9C21.9667 98.3 19.0333 99 15.3 99ZM15.3 92.1C17.9 92.1 19.8333 91.3667 21.1 89.9C22.4333 88.3667 23.1 86.3333 23.1 83.8V42.2C23.1 39.6667 22.4333 37.6667 21.1 36.2C19.8333 34.6667 17.9 33.9 15.3 33.9C12.9667 33.9 11 34.5333 9.4 35.8C7.86667 37.0667 7.1 39.1667 7.1 42.1C7.1 44.9667 7.9 47.1333 9.5 48.6C11.1 50 13.6667 50.7 17.2 50.7H54C57.5333 50.7 60.1 50 61.7 48.6C63.3 47.1333 64.1 44.9667 64.1 42.1C64.1 39.1667 63.3 37.0667 61.7 35.8C60.1667 34.5333 58.2333 33.9 55.9 33.9C53.3 33.9 51.3333 34.6667 50 36.2C48.7333 37.6667 48.1 39.6667 48.1 42.2V83.8C48.1 86.3333 48.7333 88.3667 50 89.9C51.3333 91.3667 53.3 92.1 55.9 92.1C58.2333 92.1 60.1667 91.4667 61.7 90.2C63.3 88.9333 64.1 86.8333 64.1 83.9C64.1 81.0333 63.3 78.9 61.7 77.5C60.1 76.0333 57.5333 75.3 54 75.3H17.2C13.6667 75.3 11.1 76.0333 9.5 77.5C7.9 78.9 7.1 81.0333 7.1 83.9C7.1 86.8333 7.86667 88.9333 9.4 90.2C11 91.4667 12.9667 92.1 15.3 92.1Z" fill="white"/>
<path d="M120.248 60.8164H142.025V38.9902H148.324V60.8164H170.248V67.1152H148.324V88.9902H142.025V67.1152H120.248V60.8164ZM259.686 82.7891C259.686 85.1654 259.23 87.3952 258.318 89.4785C257.439 91.5618 256.219 93.3848 254.656 94.9473C253.094 96.5098 251.271 97.7467 249.188 98.6582C247.104 99.5371 244.874 99.9766 242.498 99.9766H237.518C235.141 99.9766 232.895 99.5371 230.779 98.6582C228.696 97.7467 226.873 96.5098 225.311 94.9473C223.748 93.3848 222.511 91.5618 221.6 89.4785C220.721 87.3952 220.281 85.1654 220.281 82.7891V45.1914C220.281 42.8151 220.721 40.5853 221.6 38.502C222.511 36.4186 223.748 34.5957 225.311 33.0332C226.873 31.4707 228.696 30.25 230.779 29.3711C232.895 28.4596 235.141 28.0039 237.518 28.0039H242.498C244.874 28.0039 247.104 28.4596 249.188 29.3711C251.271 30.25 253.094 31.4707 254.656 33.0332C256.219 34.5957 257.439 36.4186 258.318 38.502C259.23 40.5853 259.686 42.8151 259.686 45.1914V48.0234L253.387 49V45.1914C253.387 43.6289 253.094 42.1803 252.508 40.8457C251.922 39.4785 251.124 38.2904 250.115 37.2812C249.106 36.2721 247.918 35.4746 246.551 34.8887C245.216 34.3027 243.768 34.0098 242.205 34.0098H237.811C236.248 34.0098 234.783 34.3027 233.416 34.8887C232.081 35.4746 230.893 36.2721 229.852 37.2812C228.842 38.2904 228.045 39.4785 227.459 40.8457C226.873 42.1803 226.58 43.6289 226.58 45.1914V82.7891C226.58 84.3516 226.873 85.8164 227.459 87.1836C228.045 88.5182 228.842 89.7064 229.852 90.748C230.893 91.7572 232.081 92.5547 233.416 93.1406C234.783 93.7266 236.248 94.0195 237.811 94.0195H242.205C243.768 94.0195 245.216 93.7266 246.551 93.1406C247.918 92.5547 249.106 91.7572 250.115 90.748C251.124 89.7064 251.922 88.5182 252.508 87.1836C253.094 85.8164 253.387 84.3516 253.387 82.7891V78.9805L259.686 80.0059V82.7891ZM362.795 51.4902V57.7891H312.795V51.4902H362.795ZM362.795 70.0938V76.3926H312.795V70.0938H362.795Z" fill="white"/>
<path d="M439.443 81.7891C439.443 84.1654 438.988 86.3952 438.076 88.4785C437.197 90.5618 435.977 92.3848 434.414 93.9473C432.852 95.5098 431.029 96.7467 428.945 97.6582C426.862 98.5371 424.632 98.9766 422.256 98.9766H417.275C414.899 98.9766 412.653 98.5371 410.537 97.6582C408.454 96.7467 406.631 95.5098 405.068 93.9473C403.506 92.3848 402.269 90.5618 401.357 88.4785C400.479 86.3952 400.039 84.1654 400.039 81.7891V44.1914C400.039 41.8151 400.479 39.5853 401.357 37.502C402.269 35.4186 403.506 33.5957 405.068 32.0332C406.631 30.4707 408.454 29.25 410.537 28.3711C412.653 27.4596 414.899 27.0039 417.275 27.0039H422.256C424.632 27.0039 426.862 27.4596 428.945 28.3711C431.029 29.25 432.852 30.4707 434.414 32.0332C435.977 33.5957 437.197 35.4186 438.076 37.502C438.988 39.5853 439.443 41.8151 439.443 44.1914V47.0234L433.145 48V44.1914C433.145 42.6289 432.852 41.1803 432.266 39.8457C431.68 38.4785 430.882 37.2904 429.873 36.2812C428.864 35.2721 427.676 34.4746 426.309 33.8887C424.974 33.3027 423.525 33.0098 421.963 33.0098H417.568C416.006 33.0098 414.541 33.3027 413.174 33.8887C411.839 34.4746 410.651 35.2721 409.609 36.2812C408.6 37.2904 407.803 38.4785 407.217 39.8457C406.631 41.1803 406.338 42.6289 406.338 44.1914V81.7891C406.338 83.3516 406.631 84.8164 407.217 86.1836C407.803 87.5182 408.6 88.7064 409.609 89.748C410.651 90.7572 411.839 91.5547 413.174 92.1406C414.541 92.7266 416.006 93.0195 417.568 93.0195H421.963C423.525 93.0195 424.974 92.7266 426.309 92.1406C427.676 91.5547 428.864 90.7572 429.873 89.748C430.882 88.7064 431.68 87.5182 432.266 86.1836C432.852 84.8164 433.145 83.3516 433.145 81.7891V77.9805L439.443 79.0059V81.7891ZM499.885 81.7891C499.885 84.1654 499.429 86.3952 498.518 88.4785C497.639 90.5618 496.418 92.3848 494.855 93.9473C493.293 95.5098 491.47 96.7467 489.387 97.6582C487.303 98.5371 485.074 98.9766 482.697 98.9766H477.717C475.34 98.9766 473.094 98.5371 470.979 97.6582C468.895 96.7467 467.072 95.5098 465.51 93.9473C463.947 92.3848 462.71 90.5618 461.799 88.4785C460.92 86.3952 460.48 84.1654 460.48 81.7891V44.1914C460.48 41.8151 460.92 39.5853 461.799 37.502C462.71 35.4186 463.947 33.5957 465.51 32.0332C467.072 30.4707 468.895 29.25 470.979 28.3711C473.094 27.4596 475.34 27.0039 477.717 27.0039H482.697C485.074 27.0039 487.303 27.4596 489.387 28.3711C491.47 29.25 493.293 30.4707 494.855 32.0332C496.418 33.5957 497.639 35.4186 498.518 37.502C499.429 39.5853 499.885 41.8151 499.885 44.1914V81.7891ZM493.586 44.1914C493.586 42.6289 493.293 41.1803 492.707 39.8457C492.121 38.4785 491.324 37.2904 490.314 36.2812C489.305 35.2721 488.117 34.4746 486.75 33.8887C485.415 33.3027 483.967 33.0098 482.404 33.0098H478.01C476.447 33.0098 474.982 33.3027 473.615 33.8887C472.281 34.4746 471.092 35.2721 470.051 36.2812C469.042 37.2904 468.244 38.4785 467.658 39.8457C467.072 41.1803 466.779 42.6289 466.779 44.1914V81.7891C466.779 83.3516 467.072 84.8164 467.658 86.1836C468.244 87.5182 469.042 88.7064 470.051 89.748C471.092 90.7572 472.281 91.5547 473.615 92.1406C474.982 92.7266 476.447 93.0195 478.01 93.0195H482.404C483.967 93.0195 485.415 92.7266 486.75 92.1406C488.117 91.5547 489.305 90.7572 490.314 89.748C491.324 88.7064 492.121 87.5182 492.707 86.1836C493.293 84.8164 493.586 83.3516 493.586 81.7891V44.1914ZM555.834 98L536.84 68.1172H528.197V98H521.898V27.9805H544.115C546.492 27.9805 548.721 28.4362 550.805 29.3477C552.888 30.2266 554.711 31.4473 556.273 33.0098C557.836 34.5723 559.057 36.4115 559.936 38.5273C560.847 40.6107 561.303 42.8405 561.303 45.2168V50.8809C561.303 53.2572 560.847 55.5033 559.936 57.6191C559.057 59.7025 557.836 61.5254 556.273 63.0879C554.711 64.6504 552.888 65.8874 550.805 66.7988C548.721 67.6777 546.492 68.1172 544.115 68.1172L563.109 98H555.834ZM555.004 45.2168C555.004 43.6543 554.711 42.2057 554.125 40.8711C553.539 39.5039 552.742 38.3158 551.732 37.3066C550.723 36.265 549.535 35.4512 548.168 34.8652C546.833 34.2793 545.385 33.9863 543.822 33.9863H528.197V62.1113H543.822C545.385 62.1113 546.833 61.8184 548.168 61.2324C549.535 60.6465 550.723 59.849 551.732 58.8398C552.742 57.7982 553.539 56.61 554.125 55.2754C554.711 53.9082 555.004 52.4434 555.004 50.8809V45.2168ZM622.574 80.8125C622.574 83.1888 622.118 85.4186 621.207 87.502C620.328 89.5853 619.107 91.4082 617.545 92.9707C615.982 94.5332 614.143 95.7702 612.027 96.6816C609.944 97.5605 607.714 98 605.338 98H583.17V27.9805H605.338C607.714 27.9805 609.944 28.4362 612.027 29.3477C614.143 30.2266 615.982 31.4473 617.545 33.0098C619.107 34.5723 620.328 36.4115 621.207 38.5273C622.118 40.6107 622.574 42.8405 622.574 45.2168V80.8125ZM616.275 45.2168C616.275 43.6543 615.982 42.2057 615.396 40.8711C614.811 39.5039 613.997 38.3158 612.955 37.3066C611.946 36.265 610.758 35.4512 609.391 34.8652C608.056 34.2793 606.607 33.9863 605.045 33.9863H589.469V91.9941H605.045C606.607 91.9941 608.056 91.7012 609.391 91.1152C610.758 90.5293 611.946 89.7318 612.955 88.7227C613.997 87.7135 614.811 86.5417 615.396 85.207C615.982 83.8398 616.275 82.375 616.275 80.8125V45.2168ZM671.834 81.6914H649.666L645.076 98H638.533L659.041 27.9805H662.361L682.967 98H676.473L671.834 81.6914ZM651.375 75.6855H670.174L660.945 43.4102L660.75 40.8223L660.555 43.4102L651.375 75.6855Z" fill="white"/>
<path d="M15.3 198C10.6333 198 6.9 196.633 4.1 193.9C1.36667 191.167 0 187.5 0 182.9C0 178.033 1.43333 174.267 4.3 171.6C7.23333 168.867 11.5333 167.5 17.2 167.5H54C59.7333 167.5 64.0333 168.867 66.9 171.6C69.7667 174.267 71.2 178.033 71.2 182.9C71.2 187.5 69.8 191.167 67 193.9C64.2667 196.633 60.5667 198 55.9 198C52.1667 198 49.2 197.3 47 195.9C44.8667 194.5 43.3333 192.633 42.4 190.3C41.5333 187.967 41.1 185.4 41.1 182.6V141.4C41.1 138.6 41.5333 136.033 42.4 133.7C43.3333 131.367 44.8667 129.5 47 128.1C49.2 126.7 52.1667 126 55.9 126C60.5667 126 64.2667 127.367 67 130.1C69.8 132.833 71.2 136.5 71.2 141.1C71.2 145.967 69.7667 149.767 66.9 152.5C64.0333 155.167 59.7333 156.5 54 156.5H17.2C11.5333 156.5 7.23333 155.167 4.3 152.5C1.43333 149.767 0 145.967 0 141.1C0 136.5 1.36667 132.833 4.1 130.1C6.9 127.367 10.6333 126 15.3 126C19.0333 126 21.9667 126.7 24.1 128.1C26.3 129.5 27.8333 131.367 28.7 133.7C29.6333 136.033 30.1 138.6 30.1 141.4V182.6C30.1 185.4 29.6333 187.967 28.7 190.3C27.8333 192.633 26.3 194.5 24.1 195.9C21.9667 197.3 19.0333 198 15.3 198ZM15.3 191.1C17.9 191.1 19.8333 190.367 21.1 188.9C22.4333 187.367 23.1 185.333 23.1 182.8V141.2C23.1 138.667 22.4333 136.667 21.1 135.2C19.8333 133.667 17.9 132.9 15.3 132.9C12.9667 132.9 11 133.533 9.4 134.8C7.86667 136.067 7.1 138.167 7.1 141.1C7.1 143.967 7.9 146.133 9.5 147.6C11.1 149 13.6667 149.7 17.2 149.7H54C57.5333 149.7 60.1 149 61.7 147.6C63.3 146.133 64.1 143.967 64.1 141.1C64.1 138.167 63.3 136.067 61.7 134.8C60.1667 133.533 58.2333 132.9 55.9 132.9C53.3 132.9 51.3333 133.667 50 135.2C48.7333 136.667 48.1 138.667 48.1 141.2V182.8C48.1 185.333 48.7333 187.367 50 188.9C51.3333 190.367 53.3 191.1 55.9 191.1C58.2333 191.1 60.1667 190.467 61.7 189.2C63.3 187.933 64.1 185.833 64.1 182.9C64.1 180.033 63.3 177.9 61.7 176.5C60.1 175.033 57.5333 174.3 54 174.3H17.2C13.6667 174.3 11.1 175.033 9.5 176.5C7.9 177.9 7.1 180.033 7.1 182.9C7.1 185.833 7.86667 187.933 9.4 189.2C11 190.467 12.9667 191.1 15.3 191.1Z" fill="white"/>
<path d="M15.3 198C10.6333 198 6.9 196.633 4.1 193.9C1.36667 191.167 0 187.5 0 182.9C0 178.033 1.43333 174.267 4.3 171.6C7.23333 168.867 11.5333 167.5 17.2 167.5H54C59.7333 167.5 64.0333 168.867 66.9 171.6C69.7667 174.267 71.2 178.033 71.2 182.9C71.2 187.5 69.8 191.167 67 193.9C64.2667 196.633 60.5667 198 55.9 198C52.1667 198 49.2 197.3 47 195.9C44.8667 194.5 43.3333 192.633 42.4 190.3C41.5333 187.967 41.1 185.4 41.1 182.6V141.4C41.1 138.6 41.5333 136.033 42.4 133.7C43.3333 131.367 44.8667 129.5 47 128.1C49.2 126.7 52.1667 126 55.9 126C60.5667 126 64.2667 127.367 67 130.1C69.8 132.833 71.2 136.5 71.2 141.1C71.2 145.967 69.7667 149.767 66.9 152.5C64.0333 155.167 59.7333 156.5 54 156.5H17.2C11.5333 156.5 7.23333 155.167 4.3 152.5C1.43333 149.767 0 145.967 0 141.1C0 136.5 1.36667 132.833 4.1 130.1C6.9 127.367 10.6333 126 15.3 126C19.0333 126 21.9667 126.7 24.1 128.1C26.3 129.5 27.8333 131.367 28.7 133.7C29.6333 136.033 30.1 138.6 30.1 141.4V182.6C30.1 185.4 29.6333 187.967 28.7 190.3C27.8333 192.633 26.3 194.5 24.1 195.9C21.9667 197.3 19.0333 198 15.3 198ZM15.3 191.1C17.9 191.1 19.8333 190.367 21.1 188.9C22.4333 187.367 23.1 185.333 23.1 182.8V141.2C23.1 138.667 22.4333 136.667 21.1 135.2C19.8333 133.667 17.9 132.9 15.3 132.9C12.9667 132.9 11 133.533 9.4 134.8C7.86667 136.067 7.1 138.167 7.1 141.1C7.1 143.967 7.9 146.133 9.5 147.6C11.1 149 13.6667 149.7 17.2 149.7H54C57.5333 149.7 60.1 149 61.7 147.6C63.3 146.133 64.1 143.967 64.1 141.1C64.1 138.167 63.3 136.067 61.7 134.8C60.1667 133.533 58.2333 132.9 55.9 132.9C53.3 132.9 51.3333 133.667 50 135.2C48.7333 136.667 48.1 138.667 48.1 141.2V182.8C48.1 185.333 48.7333 187.367 50 188.9C51.3333 190.367 53.3 191.1 55.9 191.1C58.2333 191.1 60.1667 190.467 61.7 189.2C63.3 187.933 64.1 185.833 64.1 182.9C64.1 180.033 63.3 177.9 61.7 176.5C60.1 175.033 57.5333 174.3 54 174.3H17.2C13.6667 174.3 11.1 175.033 9.5 176.5C7.9 177.9 7.1 180.033 7.1 182.9C7.1 185.833 7.86667 187.933 9.4 189.2C11 190.467 12.9667 191.1 15.3 191.1Z" fill="white"/>
<path d="M123.275 159.816H145.053V137.99H151.352V159.816H173.275V166.115H151.352V187.99H145.053V166.115H123.275V159.816ZM239.324 182.619L239.52 185.207L239.715 182.619L255.242 127.98H261.736L241.131 198H237.811L217.303 127.98H223.846L239.324 182.619ZM359.768 150.49V156.789H309.768V150.49H359.768ZM359.768 169.094V175.393H309.768V169.094H359.768Z" fill="white"/>
<path d="M417.346 180.619L417.541 183.207L417.736 180.619L433.264 125.98H439.758L419.152 196H415.832L395.324 125.98H401.867L417.346 180.619ZM480.961 179.691H458.793L454.203 196H447.66L468.168 125.98H471.488L492.094 196H485.6L480.961 179.691ZM460.502 173.686H479.301L470.072 141.41L469.877 138.822L469.682 141.41L460.502 173.686ZM508.053 196V125.98H514.352V189.994H541.158V196H508.053ZM559.168 196V125.98H598.572V131.986H565.467V158.012H592.273V164.018H565.467V189.994H598.572V196H559.168ZM651.543 196L632.549 166.117H623.906V196H617.607V125.98H639.824C642.201 125.98 644.43 126.436 646.514 127.348C648.597 128.227 650.42 129.447 651.982 131.01C653.545 132.572 654.766 134.411 655.645 136.527C656.556 138.611 657.012 140.84 657.012 143.217V148.881C657.012 151.257 656.556 153.503 655.645 155.619C654.766 157.702 653.545 159.525 651.982 161.088C650.42 162.65 648.597 163.887 646.514 164.799C644.43 165.678 642.201 166.117 639.824 166.117L658.818 196H651.543ZM650.713 143.217C650.713 141.654 650.42 140.206 649.834 138.871C649.248 137.504 648.451 136.316 647.441 135.307C646.432 134.265 645.244 133.451 643.877 132.865C642.542 132.279 641.094 131.986 639.531 131.986H623.906V160.111H639.531C641.094 160.111 642.542 159.818 643.877 159.232C645.244 158.646 646.432 157.849 647.441 156.84C648.451 155.798 649.248 154.61 649.834 153.275C650.42 151.908 650.713 150.443 650.713 148.881V143.217ZM678.879 196V125.98H685.178V196H678.879ZM747.621 179.789C747.621 182.165 747.165 184.395 746.254 186.479C745.375 188.562 744.154 190.385 742.592 191.947C741.029 193.51 739.206 194.747 737.123 195.658C735.04 196.537 732.81 196.977 730.434 196.977H725.453C723.077 196.977 720.831 196.537 718.715 195.658C716.632 194.747 714.809 193.51 713.246 191.947C711.684 190.385 710.447 188.562 709.535 186.479C708.656 184.395 708.217 182.165 708.217 179.789V142.191C708.217 139.815 708.656 137.585 709.535 135.502C710.447 133.419 711.684 131.596 713.246 130.033C714.809 128.471 716.632 127.25 718.715 126.371C720.831 125.46 723.077 125.004 725.453 125.004H730.434C732.81 125.004 735.04 125.46 737.123 126.371C739.206 127.25 741.029 128.471 742.592 130.033C744.154 131.596 745.375 133.419 746.254 135.502C747.165 137.585 747.621 139.815 747.621 142.191V179.789ZM741.322 142.191C741.322 140.629 741.029 139.18 740.443 137.846C739.857 136.479 739.06 135.29 738.051 134.281C737.042 133.272 735.854 132.475 734.486 131.889C733.152 131.303 731.703 131.01 730.141 131.01H725.746C724.184 131.01 722.719 131.303 721.352 131.889C720.017 132.475 718.829 133.272 717.787 134.281C716.778 135.29 715.98 136.479 715.395 137.846C714.809 139.18 714.516 140.629 714.516 142.191V179.789C714.516 181.352 714.809 182.816 715.395 184.184C715.98 185.518 716.778 186.706 717.787 187.748C718.829 188.757 720.017 189.555 721.352 190.141C722.719 190.727 724.184 191.02 725.746 191.02H730.141C731.703 191.02 733.152 190.727 734.486 190.141C735.854 189.555 737.042 188.757 738.051 187.748C739.06 186.706 739.857 185.518 740.443 184.184C741.029 182.816 741.322 181.352 741.322 179.789V142.191Z" fill="white"/>
</svg>
