<svg width="784" height="420" viewBox="0 0 784 420" fill="none" xmlns="http://www.w3.org/2000/svg">
<g filter="url(#filter0_d_5_220)">
<rect x="571" width="195" height="357" rx="25" fill="#ED1717" fill-opacity="0.16" shape-rendering="crispEdges"/>
<rect x="572.5" y="1.5" width="192" height="354" rx="23.5" stroke="black" stroke-width="3" shape-rendering="crispEdges"/>
</g>
<g filter="url(#filter1_d_5_220)">
<rect y="118" width="543" height="239" rx="25" fill="#ED1717" fill-opacity="0.16" shape-rendering="crispEdges"/>
<rect x="1.5" y="119.5" width="540" height="236" rx="23.5" stroke="black" stroke-width="3" shape-rendering="crispEdges"/>
</g>
<path d="M114.066 174.57L94.7522 226H84.9842L65.5962 174.57H74.6242L89.8682 217.342L105.186 174.57H114.066ZM158.047 215.492H136.513L132.813 226H124.007L142.433 174.496H152.201L170.627 226H161.747L158.047 215.492ZM155.679 208.61L147.317 184.708L138.881 208.61H155.679ZM192.995 219.192H210.385V226H184.559V174.57H192.995V219.192ZM240.158 174.57C245.634 174.57 250.419 175.631 254.514 177.752C258.658 179.824 261.84 182.833 264.06 186.78C266.329 190.677 267.464 195.241 267.464 200.47C267.464 205.699 266.329 210.238 264.06 214.086C261.84 217.934 258.658 220.894 254.514 222.966C250.419 224.989 245.634 226 240.158 226H223.36V174.57H240.158ZM240.158 219.118C246.176 219.118 250.789 217.49 253.996 214.234C257.202 210.978 258.806 206.39 258.806 200.47C258.806 194.501 257.202 189.839 253.996 186.484C250.789 183.129 246.176 181.452 240.158 181.452H231.796V219.118H240.158ZM290.18 181.378V196.474H307.94V203.356H290.18V219.118H310.16V226H281.744V174.496H310.16V181.378H290.18ZM370.797 174.57L351.483 226H341.715L322.327 174.57H331.355L346.599 217.342L361.917 174.57H370.797ZM382.662 198.324C382.662 189.789 384.093 183.129 386.954 178.344C389.865 173.509 394.847 171.092 401.902 171.092C408.957 171.092 413.915 173.509 416.776 178.344C419.687 183.129 421.142 189.789 421.142 198.324C421.142 206.957 419.687 213.716 416.776 218.6C413.915 223.435 408.957 225.852 401.902 225.852C394.847 225.852 389.865 223.435 386.954 218.6C384.093 213.716 382.662 206.957 382.662 198.324ZM412.854 198.324C412.854 194.328 412.583 190.949 412.04 188.186C411.547 185.423 410.511 183.179 408.932 181.452C407.353 179.676 405.01 178.788 401.902 178.788C398.794 178.788 396.451 179.676 394.872 181.452C393.293 183.179 392.233 185.423 391.69 188.186C391.197 190.949 390.95 194.328 390.95 198.324C390.95 202.468 391.197 205.946 391.69 208.758C392.183 211.57 393.219 213.839 394.798 215.566C396.426 217.293 398.794 218.156 401.902 218.156C405.01 218.156 407.353 217.293 408.932 215.566C410.56 213.839 411.621 211.57 412.114 208.758C412.607 205.946 412.854 202.468 412.854 198.324ZM470.768 179.306H445.978V194.032C447.014 192.651 448.543 191.491 450.566 190.554C452.638 189.617 454.833 189.148 457.152 189.148C461.296 189.148 464.651 190.036 467.216 191.812C469.831 193.588 471.681 195.833 472.766 198.546C473.901 201.259 474.468 204.121 474.468 207.13C474.468 210.781 473.753 214.037 472.322 216.898C470.941 219.71 468.844 221.93 466.032 223.558C463.269 225.186 459.865 226 455.82 226C450.443 226 446.126 224.668 442.87 222.004C439.614 219.34 437.665 215.813 437.024 211.422H445.238C445.781 213.741 446.989 215.591 448.864 216.972C450.739 218.304 453.082 218.97 455.894 218.97C459.397 218.97 462.011 217.909 463.738 215.788C465.514 213.667 466.402 210.855 466.402 207.352C466.402 203.8 465.514 201.087 463.738 199.212C461.962 197.288 459.347 196.326 455.894 196.326C453.477 196.326 451.429 196.943 449.752 198.176C448.124 199.36 446.94 200.988 446.2 203.06H438.208V171.906H470.768V179.306Z" fill="white"/>
<path d="M223.997 263.942V269.037L192.272 283.093L223.997 297.076V302.207L186.997 285.694V280.419L223.997 263.942ZM258.854 313.444L279.485 252.777H284.146L263.515 313.444H258.854ZM350.619 283.093L318.967 269.037V263.942L355.967 280.419V285.694L318.967 302.207V297.076L350.619 283.093Z" fill="white"/>
<rect x="586" y="18" width="166" height="41" rx="10" fill="#FF6868" fill-opacity="0.46"/>
<rect x="588" y="294" width="166" height="47" rx="10" fill="#FF6868" fill-opacity="0.46"/>
<path d="M613.201 42.736L607.417 37.216L613.201 31.72H615.961L610.153 37.216L615.961 42.736H613.201ZM629.01 32.608C630.002 32.608 630.898 32.824 631.698 33.256C632.498 33.672 633.122 34.304 633.57 35.152C634.034 36 634.266 37.032 634.266 38.248V46H632.106V38.56C632.106 37.248 631.778 36.248 631.122 35.56C630.466 34.856 629.57 34.504 628.434 34.504C627.282 34.504 626.362 34.864 625.674 35.584C625.002 36.304 624.666 37.352 624.666 38.728V46H622.482V28.24H624.666V34.72C625.098 34.048 625.69 33.528 626.442 33.16C627.21 32.792 628.066 32.608 629.01 32.608ZM651.753 38.92C651.753 39.336 651.729 39.776 651.681 40.24H641.169C641.249 41.536 641.689 42.552 642.489 43.288C643.305 44.008 644.289 44.368 645.441 44.368C646.385 44.368 647.169 44.152 647.793 43.72C648.433 43.272 648.881 42.68 649.137 41.944H651.489C651.137 43.208 650.433 44.24 649.377 45.04C648.321 45.824 647.009 46.216 645.441 46.216C644.193 46.216 643.073 45.936 642.081 45.376C641.105 44.816 640.337 44.024 639.777 43C639.217 41.96 638.937 40.76 638.937 39.4C638.937 38.04 639.209 36.848 639.753 35.824C640.297 34.8 641.057 34.016 642.033 33.472C643.025 32.912 644.161 32.632 645.441 32.632C646.689 32.632 647.793 32.904 648.753 33.448C649.713 33.992 650.449 34.744 650.961 35.704C651.489 36.648 651.753 37.72 651.753 38.92ZM649.497 38.464C649.497 37.632 649.313 36.92 648.945 36.328C648.577 35.72 648.073 35.264 647.433 34.96C646.809 34.64 646.113 34.48 645.345 34.48C644.241 34.48 643.297 34.832 642.513 35.536C641.745 36.24 641.305 37.216 641.193 38.464H649.497ZM655.74 39.376C655.74 38.032 656.012 36.856 656.556 35.848C657.1 34.824 657.844 34.032 658.788 33.472C659.748 32.912 660.812 32.632 661.98 32.632C663.132 32.632 664.132 32.88 664.98 33.376C665.828 33.872 666.46 34.496 666.876 35.248V32.848H669.084V46H666.876V43.552C666.444 44.32 665.796 44.96 664.932 45.472C664.084 45.968 663.092 46.216 661.956 46.216C660.788 46.216 659.732 45.928 658.788 45.352C657.844 44.776 657.1 43.968 656.556 42.928C656.012 41.888 655.74 40.704 655.74 39.376ZM666.876 39.4C666.876 38.408 666.676 37.544 666.276 36.808C665.876 36.072 665.332 35.512 664.644 35.128C663.972 34.728 663.228 34.528 662.412 34.528C661.596 34.528 660.852 34.72 660.18 35.104C659.508 35.488 658.972 36.048 658.572 36.784C658.172 37.52 657.972 38.384 657.972 39.376C657.972 40.384 658.172 41.264 658.572 42.016C658.972 42.752 659.508 43.32 660.18 43.72C660.852 44.104 661.596 44.296 662.412 44.296C663.228 44.296 663.972 44.104 664.644 43.72C665.332 43.32 665.876 42.752 666.276 42.016C666.676 41.264 666.876 40.392 666.876 39.4ZM673.879 39.376C673.879 38.032 674.151 36.856 674.695 35.848C675.239 34.824 675.983 34.032 676.927 33.472C677.887 32.912 678.959 32.632 680.143 32.632C681.167 32.632 682.119 32.872 682.999 33.352C683.879 33.816 684.551 34.432 685.015 35.2V28.24H687.223V46H685.015V43.528C684.583 44.312 683.943 44.96 683.095 45.472C682.247 45.968 681.255 46.216 680.119 46.216C678.951 46.216 677.887 45.928 676.927 45.352C675.983 44.776 675.239 43.968 674.695 42.928C674.151 41.888 673.879 40.704 673.879 39.376ZM685.015 39.4C685.015 38.408 684.815 37.544 684.415 36.808C684.015 36.072 683.471 35.512 682.783 35.128C682.111 34.728 681.367 34.528 680.551 34.528C679.735 34.528 678.991 34.72 678.319 35.104C677.647 35.488 677.111 36.048 676.711 36.784C676.311 37.52 676.111 38.384 676.111 39.376C676.111 40.384 676.311 41.264 676.711 42.016C677.111 42.752 677.647 43.32 678.319 43.72C678.991 44.104 679.735 44.296 680.551 44.296C681.367 44.296 682.111 44.104 682.783 43.72C683.471 43.32 684.015 42.752 684.415 42.016C684.815 41.264 685.015 40.392 685.015 39.4ZM704.833 38.92C704.833 39.336 704.809 39.776 704.761 40.24H694.249C694.329 41.536 694.769 42.552 695.569 43.288C696.385 44.008 697.369 44.368 698.521 44.368C699.465 44.368 700.249 44.152 700.873 43.72C701.513 43.272 701.961 42.68 702.217 41.944H704.569C704.217 43.208 703.513 44.24 702.457 45.04C701.401 45.824 700.089 46.216 698.521 46.216C697.273 46.216 696.153 45.936 695.161 45.376C694.185 44.816 693.417 44.024 692.857 43C692.297 41.96 692.017 40.76 692.017 39.4C692.017 38.04 692.289 36.848 692.833 35.824C693.377 34.8 694.137 34.016 695.113 33.472C696.105 32.912 697.241 32.632 698.521 32.632C699.769 32.632 700.873 32.904 701.833 33.448C702.793 33.992 703.529 34.744 704.041 35.704C704.569 36.648 704.833 37.72 704.833 38.92ZM702.577 38.464C702.577 37.632 702.393 36.92 702.025 36.328C701.657 35.72 701.153 35.264 700.513 34.96C699.889 34.64 699.193 34.48 698.425 34.48C697.321 34.48 696.377 34.832 695.593 35.536C694.825 36.24 694.385 37.216 694.273 38.464H702.577ZM711.82 34.984C712.204 34.232 712.748 33.648 713.452 33.232C714.172 32.816 715.044 32.608 716.068 32.608V34.864H715.492C713.044 34.864 711.82 36.192 711.82 38.848V46H709.636V32.848H711.82V34.984ZM720.917 31.72H723.677L729.485 37.216L723.677 42.736H720.917L726.725 37.216L720.917 31.72Z" fill="white"/>
<path d="M620.865 321.736L615.081 316.216L620.865 310.72H623.625L617.817 316.216L623.625 321.736H620.865ZM635.498 313.648H632.738V325H630.554V313.648H628.85V311.848H630.554V310.912C630.554 309.44 630.93 308.368 631.682 307.696C632.45 307.008 633.674 306.664 635.354 306.664V308.488C634.394 308.488 633.714 308.68 633.314 309.064C632.93 309.432 632.738 310.048 632.738 310.912V311.848H635.498V313.648ZM645.7 325.216C644.468 325.216 643.348 324.936 642.34 324.376C641.348 323.816 640.564 323.024 639.988 322C639.428 320.96 639.148 319.76 639.148 318.4C639.148 317.056 639.436 315.872 640.012 314.848C640.604 313.808 641.404 313.016 642.412 312.472C643.42 311.912 644.548 311.632 645.796 311.632C647.044 311.632 648.172 311.912 649.18 312.472C650.188 313.016 650.98 313.8 651.556 314.824C652.148 315.848 652.444 317.04 652.444 318.4C652.444 319.76 652.14 320.96 651.532 322C650.94 323.024 650.132 323.816 649.108 324.376C648.084 324.936 646.948 325.216 645.7 325.216ZM645.7 323.296C646.484 323.296 647.22 323.112 647.908 322.744C648.596 322.376 649.148 321.824 649.564 321.088C649.996 320.352 650.212 319.456 650.212 318.4C650.212 317.344 650.004 316.448 649.588 315.712C649.172 314.976 648.628 314.432 647.956 314.08C647.284 313.712 646.556 313.528 645.772 313.528C644.972 313.528 644.236 313.712 643.564 314.08C642.908 314.432 642.38 314.976 641.98 315.712C641.58 316.448 641.38 317.344 641.38 318.4C641.38 319.472 641.572 320.376 641.956 321.112C642.356 321.848 642.884 322.4 643.54 322.768C644.196 323.12 644.916 323.296 645.7 323.296ZM662.972 325.216C661.74 325.216 660.62 324.936 659.612 324.376C658.62 323.816 657.836 323.024 657.26 322C656.7 320.96 656.42 319.76 656.42 318.4C656.42 317.056 656.708 315.872 657.284 314.848C657.876 313.808 658.676 313.016 659.684 312.472C660.692 311.912 661.82 311.632 663.068 311.632C664.316 311.632 665.444 311.912 666.452 312.472C667.46 313.016 668.252 313.8 668.828 314.824C669.42 315.848 669.716 317.04 669.716 318.4C669.716 319.76 669.412 320.96 668.804 322C668.212 323.024 667.404 323.816 666.38 324.376C665.356 324.936 664.22 325.216 662.972 325.216ZM662.972 323.296C663.756 323.296 664.492 323.112 665.18 322.744C665.868 322.376 666.42 321.824 666.836 321.088C667.268 320.352 667.484 319.456 667.484 318.4C667.484 317.344 667.276 316.448 666.86 315.712C666.444 314.976 665.9 314.432 665.228 314.08C664.556 313.712 663.828 313.528 663.044 313.528C662.244 313.528 661.508 313.712 660.836 314.08C660.18 314.432 659.652 314.976 659.252 315.712C658.852 316.448 658.652 317.344 658.652 318.4C658.652 319.472 658.844 320.376 659.228 321.112C659.628 321.848 660.156 322.4 660.812 322.768C661.468 323.12 662.188 323.296 662.972 323.296ZM677.171 313.648V321.4C677.171 322.04 677.307 322.496 677.579 322.768C677.851 323.024 678.323 323.152 678.995 323.152H680.603V325H678.635C677.419 325 676.507 324.72 675.899 324.16C675.291 323.6 674.987 322.68 674.987 321.4V313.648H673.283V311.848H674.987V308.536H677.171V311.848H680.603V313.648H677.171ZM697.169 317.92C697.169 318.336 697.145 318.776 697.097 319.24H686.585C686.665 320.536 687.105 321.552 687.905 322.288C688.721 323.008 689.705 323.368 690.857 323.368C691.801 323.368 692.585 323.152 693.209 322.72C693.849 322.272 694.297 321.68 694.553 320.944H696.905C696.553 322.208 695.849 323.24 694.793 324.04C693.737 324.824 692.425 325.216 690.857 325.216C689.609 325.216 688.489 324.936 687.497 324.376C686.521 323.816 685.753 323.024 685.193 322C684.633 320.96 684.353 319.76 684.353 318.4C684.353 317.04 684.625 315.848 685.169 314.824C685.713 313.8 686.473 313.016 687.449 312.472C688.441 311.912 689.577 311.632 690.857 311.632C692.105 311.632 693.209 311.904 694.169 312.448C695.129 312.992 695.865 313.744 696.377 314.704C696.905 315.648 697.169 316.72 697.169 317.92ZM694.913 317.464C694.913 316.632 694.729 315.92 694.361 315.328C693.993 314.72 693.489 314.264 692.849 313.96C692.225 313.64 691.529 313.48 690.761 313.48C689.657 313.48 688.713 313.832 687.929 314.536C687.161 315.24 686.721 316.216 686.609 317.464H694.913ZM704.156 313.984C704.54 313.232 705.084 312.648 705.788 312.232C706.508 311.816 707.38 311.608 708.404 311.608V313.864H707.828C705.38 313.864 704.156 315.192 704.156 317.848V325H701.972V311.848H704.156V313.984ZM713.253 310.72H716.013L721.821 316.216L716.013 321.736H713.253L719.061 316.216L713.253 310.72Z" fill="white"/>
<rect x="586" y="72" width="166" height="30" rx="10" fill="#FF6868" fill-opacity="0.46"/>
<path d="M700.202 90.96L696.587 87.51L700.202 84.075H701.927L698.297 87.51L701.927 90.96H700.202ZM710.007 84.63C711.007 84.63 711.817 84.935 712.437 85.545C713.057 86.145 713.367 87.015 713.367 88.155V93H712.017V88.35C712.017 87.53 711.812 86.905 711.402 86.475C710.992 86.035 710.432 85.815 709.722 85.815C709.002 85.815 708.427 86.04 707.997 86.49C707.577 86.94 707.367 87.595 707.367 88.455V93H706.002V84.78H707.367V85.95C707.637 85.53 708.002 85.205 708.462 84.975C708.932 84.745 709.447 84.63 710.007 84.63ZM716.287 88.86C716.287 88.02 716.457 87.285 716.797 86.655C717.137 86.015 717.602 85.52 718.192 85.17C718.792 84.82 719.457 84.645 720.187 84.645C720.907 84.645 721.532 84.8 722.062 85.11C722.592 85.42 722.987 85.81 723.247 86.28V84.78H724.627V93H723.247V91.47C722.977 91.95 722.572 92.35 722.032 92.67C721.502 92.98 720.882 93.135 720.172 93.135C719.442 93.135 718.782 92.955 718.192 92.595C717.602 92.235 717.137 91.73 716.797 91.08C716.457 90.43 716.287 89.69 716.287 88.86ZM723.247 88.875C723.247 88.255 723.122 87.715 722.872 87.255C722.622 86.795 722.282 86.445 721.852 86.205C721.432 85.955 720.967 85.83 720.457 85.83C719.947 85.83 719.482 85.95 719.062 86.19C718.642 86.43 718.307 86.78 718.057 87.24C717.807 87.7 717.682 88.24 717.682 88.86C717.682 89.49 717.807 90.04 718.057 90.51C718.307 90.97 718.642 91.325 719.062 91.575C719.482 91.815 719.947 91.935 720.457 91.935C720.967 91.935 721.432 91.815 721.852 91.575C722.282 91.325 722.622 90.97 722.872 90.51C723.122 90.04 723.247 89.495 723.247 88.875ZM731.194 91.74L733.744 84.78H735.199L731.974 93H730.384L727.159 84.78H728.629L731.194 91.74ZM737.997 84.075H739.722L743.352 87.51L739.722 90.96H737.997L741.627 87.51L737.997 84.075Z" fill="white"/>
<rect x="599" y="82" width="14" height="11" rx="3" fill="#C4C4C4"/>
<rect x="623" y="82" width="14" height="11" rx="3" fill="#C4C4C4"/>
<rect x="647" y="82" width="14" height="11" rx="3" fill="#C4C4C4"/>
<rect x="671" y="82" width="14" height="11" rx="3" fill="#C4C4C4"/>
<rect x="588" y="110" width="164" height="170" rx="10" fill="#FF6868" fill-opacity="0.46"/>
<path d="M599.645 125.28L594.825 120.68L599.645 116.1H601.945L597.105 120.68L601.945 125.28H599.645ZM620.558 116.84C621.412 116.84 622.172 117.02 622.838 117.38C623.505 117.727 624.032 118.253 624.418 118.96C624.805 119.667 624.998 120.527 624.998 121.54V128H623.198V121.8C623.198 120.707 622.925 119.873 622.378 119.3C621.845 118.713 621.118 118.42 620.198 118.42C619.252 118.42 618.498 118.727 617.938 119.34C617.378 119.94 617.098 120.813 617.098 121.96V128H615.298V121.8C615.298 120.707 615.025 119.873 614.478 119.3C613.945 118.713 613.218 118.42 612.298 118.42C611.352 118.42 610.598 118.727 610.038 119.34C609.478 119.94 609.198 120.813 609.198 121.96V128H607.378V117.04H609.198V118.62C609.558 118.047 610.038 117.607 610.638 117.3C611.252 116.993 611.925 116.84 612.658 116.84C613.578 116.84 614.392 117.047 615.098 117.46C615.805 117.873 616.332 118.48 616.678 119.28C616.985 118.507 617.492 117.907 618.198 117.48C618.905 117.053 619.692 116.84 620.558 116.84ZM628.904 122.48C628.904 121.36 629.13 120.38 629.584 119.54C630.037 118.687 630.657 118.027 631.444 117.56C632.244 117.093 633.13 116.86 634.104 116.86C635.064 116.86 635.897 117.067 636.604 117.48C637.31 117.893 637.837 118.413 638.184 119.04V117.04H640.024V128H638.184V125.96C637.824 126.6 637.284 127.133 636.564 127.56C635.857 127.973 635.03 128.18 634.084 128.18C633.11 128.18 632.23 127.94 631.444 127.46C630.657 126.98 630.037 126.307 629.584 125.44C629.13 124.573 628.904 123.587 628.904 122.48ZM638.184 122.5C638.184 121.673 638.017 120.953 637.684 120.34C637.35 119.727 636.897 119.26 636.324 118.94C635.764 118.607 635.144 118.44 634.464 118.44C633.784 118.44 633.164 118.6 632.604 118.92C632.044 119.24 631.597 119.707 631.264 120.32C630.93 120.933 630.764 121.653 630.764 122.48C630.764 123.32 630.93 124.053 631.264 124.68C631.597 125.293 632.044 125.767 632.604 126.1C633.164 126.42 633.784 126.58 634.464 126.58C635.144 126.58 635.764 126.42 636.324 126.1C636.897 125.767 637.35 125.293 637.684 124.68C638.017 124.053 638.184 123.327 638.184 122.5ZM645.639 115.26C645.293 115.26 644.999 115.14 644.759 114.9C644.519 114.66 644.399 114.367 644.399 114.02C644.399 113.673 644.519 113.38 644.759 113.14C644.999 112.9 645.293 112.78 645.639 112.78C645.973 112.78 646.253 112.9 646.479 113.14C646.719 113.38 646.839 113.673 646.839 114.02C646.839 114.367 646.719 114.66 646.479 114.9C646.253 115.14 645.973 115.26 645.639 115.26ZM646.519 117.04V128H644.699V117.04H646.519ZM656.561 116.84C657.895 116.84 658.975 117.247 659.801 118.06C660.628 118.86 661.041 120.02 661.041 121.54V128H659.241V121.8C659.241 120.707 658.968 119.873 658.421 119.3C657.875 118.713 657.128 118.42 656.181 118.42C655.221 118.42 654.455 118.72 653.881 119.32C653.321 119.92 653.041 120.793 653.041 121.94V128H651.221V117.04H653.041V118.6C653.401 118.04 653.888 117.607 654.501 117.3C655.128 116.993 655.815 116.84 656.561 116.84ZM665.954 116.1H668.254L673.094 120.68L668.254 125.28H665.954L670.794 120.68L665.954 116.1Z" fill="white"/>
<rect x="593" y="135" width="61" height="137" rx="8" fill="#DE8350" fill-opacity="0.24"/>
<path d="M602.68 147.64L600.27 145.34L602.68 143.05H603.83L601.41 145.34L603.83 147.64H602.68ZM606.207 146.24C606.207 145.68 606.32 145.19 606.547 144.77C606.774 144.343 607.084 144.013 607.477 143.78C607.877 143.547 608.32 143.43 608.807 143.43C609.287 143.43 609.704 143.533 610.057 143.74C610.41 143.947 610.674 144.207 610.847 144.52V143.52H611.767V149H610.847V147.98C610.667 148.3 610.397 148.567 610.037 148.78C609.684 148.987 609.27 149.09 608.797 149.09C608.31 149.09 607.87 148.97 607.477 148.73C607.084 148.49 606.774 148.153 606.547 147.72C606.32 147.287 606.207 146.793 606.207 146.24ZM610.847 146.25C610.847 145.837 610.764 145.477 610.597 145.17C610.43 144.863 610.204 144.63 609.917 144.47C609.637 144.303 609.327 144.22 608.987 144.22C608.647 144.22 608.337 144.3 608.057 144.46C607.777 144.62 607.554 144.853 607.387 145.16C607.22 145.467 607.137 145.827 607.137 146.24C607.137 146.66 607.22 147.027 607.387 147.34C607.554 147.647 607.777 147.883 608.057 148.05C608.337 148.21 608.647 148.29 608.987 148.29C609.327 148.29 609.637 148.21 609.917 148.05C610.204 147.883 610.43 147.647 610.597 147.34C610.764 147.027 610.847 146.663 610.847 146.25ZM616.045 149.09C615.625 149.09 615.248 149.02 614.915 148.88C614.581 148.733 614.318 148.533 614.125 148.28C613.931 148.02 613.825 147.723 613.805 147.39H614.745C614.771 147.663 614.898 147.887 615.125 148.06C615.358 148.233 615.661 148.32 616.035 148.32C616.381 148.32 616.655 148.243 616.855 148.09C617.055 147.937 617.155 147.743 617.155 147.51C617.155 147.27 617.048 147.093 616.835 146.98C616.621 146.86 616.291 146.743 615.845 146.63C615.438 146.523 615.105 146.417 614.845 146.31C614.591 146.197 614.371 146.033 614.185 145.82C614.005 145.6 613.915 145.313 613.915 144.96C613.915 144.68 613.998 144.423 614.165 144.19C614.331 143.957 614.568 143.773 614.875 143.64C615.181 143.5 615.531 143.43 615.925 143.43C616.531 143.43 617.021 143.583 617.395 143.89C617.768 144.197 617.968 144.617 617.995 145.15H617.085C617.065 144.863 616.948 144.633 616.735 144.46C616.528 144.287 616.248 144.2 615.895 144.2C615.568 144.2 615.308 144.27 615.115 144.41C614.921 144.55 614.825 144.733 614.825 144.96C614.825 145.14 614.881 145.29 614.995 145.41C615.115 145.523 615.261 145.617 615.435 145.69C615.615 145.757 615.861 145.833 616.175 145.92C616.568 146.027 616.888 146.133 617.135 146.24C617.381 146.34 617.591 146.493 617.765 146.7C617.945 146.907 618.038 147.177 618.045 147.51C618.045 147.81 617.961 148.08 617.795 148.32C617.628 148.56 617.391 148.75 617.085 148.89C616.785 149.023 616.438 149.09 616.045 149.09ZM620.599 142.63C620.426 142.63 620.279 142.57 620.159 142.45C620.039 142.33 619.979 142.183 619.979 142.01C619.979 141.837 620.039 141.69 620.159 141.57C620.279 141.45 620.426 141.39 620.599 141.39C620.766 141.39 620.906 141.45 621.019 141.57C621.139 141.69 621.199 141.837 621.199 142.01C621.199 142.183 621.139 142.33 621.019 142.45C620.906 142.57 620.766 142.63 620.599 142.63ZM621.039 143.52V149H620.129V143.52H621.039ZM623.05 146.24C623.05 145.68 623.164 145.19 623.39 144.77C623.617 144.343 623.927 144.013 624.32 143.78C624.72 143.547 625.167 143.43 625.66 143.43C626.087 143.43 626.484 143.53 626.85 143.73C627.217 143.923 627.497 144.18 627.69 144.5V141.6H628.61V149H627.69V147.97C627.51 148.297 627.244 148.567 626.89 148.78C626.537 148.987 626.124 149.09 625.65 149.09C625.164 149.09 624.72 148.97 624.32 148.73C623.927 148.49 623.617 148.153 623.39 147.72C623.164 147.287 623.05 146.793 623.05 146.24ZM627.69 146.25C627.69 145.837 627.607 145.477 627.44 145.17C627.274 144.863 627.047 144.63 626.76 144.47C626.48 144.303 626.17 144.22 625.83 144.22C625.49 144.22 625.18 144.3 624.9 144.46C624.62 144.62 624.397 144.853 624.23 145.16C624.064 145.467 623.98 145.827 623.98 146.24C623.98 146.66 624.064 147.027 624.23 147.34C624.397 147.647 624.62 147.883 624.9 148.05C625.18 148.21 625.49 148.29 625.83 148.29C626.17 148.29 626.48 148.21 626.76 148.05C627.047 147.883 627.274 147.647 627.44 147.34C627.607 147.027 627.69 146.663 627.69 146.25ZM635.948 146.05C635.948 146.223 635.938 146.407 635.918 146.6H631.538C631.571 147.14 631.755 147.563 632.088 147.87C632.428 148.17 632.838 148.32 633.318 148.32C633.711 148.32 634.038 148.23 634.298 148.05C634.565 147.863 634.751 147.617 634.858 147.31H635.838C635.691 147.837 635.398 148.267 634.958 148.6C634.518 148.927 633.971 149.09 633.318 149.09C632.798 149.09 632.331 148.973 631.918 148.74C631.511 148.507 631.191 148.177 630.958 147.75C630.725 147.317 630.608 146.817 630.608 146.25C630.608 145.683 630.721 145.187 630.948 144.76C631.175 144.333 631.491 144.007 631.898 143.78C632.311 143.547 632.785 143.43 633.318 143.43C633.838 143.43 634.298 143.543 634.698 143.77C635.098 143.997 635.405 144.31 635.618 144.71C635.838 145.103 635.948 145.55 635.948 146.05ZM635.008 145.86C635.008 145.513 634.931 145.217 634.778 144.97C634.625 144.717 634.415 144.527 634.148 144.4C633.888 144.267 633.598 144.2 633.278 144.2C632.818 144.2 632.425 144.347 632.098 144.64C631.778 144.933 631.595 145.34 631.548 145.86H635.008ZM638.119 143.05H639.269L641.689 145.34L639.269 147.64H638.119L640.539 145.34L638.119 143.05Z" fill="white"/>
<rect x="604.627" y="212.77" width="34.7458" height="4.59016" fill="#C4C4C4"/>
<rect x="604.627" y="221.033" width="34.7458" height="4.59016" fill="#C4C4C4"/>
<rect x="604.627" y="229.295" width="34.7458" height="4.59016" fill="#C4C4C4"/>
<rect x="604.627" y="237.557" width="34.7458" height="4.59016" fill="#C4C4C4"/>
<path d="M600.656 209.655H597.686L600.161 205.425H602.111L600.656 209.655ZM604.526 209.655H601.556L604.031 205.425H605.981L604.526 209.655Z" fill="#C4C4C4"/>
<path opacity="0.9" d="M643.344 244.345H646.314L643.839 248.575H641.889L643.344 244.345ZM639.474 244.345H642.444L639.969 248.575H638.019L639.474 244.345Z" fill="#C4C4C4"/>
<rect x="604" y="161" width="35" height="35" rx="10" fill="#C4C4C4"/>
<rect x="656" y="145" width="93" height="115" rx="10" fill="#AD574E"/>
<path d="M663.383 162.64L660.973 160.34L663.383 158.05H664.533L662.113 160.34L664.533 162.64H663.383ZM669.19 164.09C668.77 164.09 668.393 164.02 668.06 163.88C667.727 163.733 667.463 163.533 667.27 163.28C667.077 163.02 666.97 162.723 666.95 162.39H667.89C667.917 162.663 668.043 162.887 668.27 163.06C668.503 163.233 668.807 163.32 669.18 163.32C669.527 163.32 669.8 163.243 670 163.09C670.2 162.937 670.3 162.743 670.3 162.51C670.3 162.27 670.193 162.093 669.98 161.98C669.767 161.86 669.437 161.743 668.99 161.63C668.583 161.523 668.25 161.417 667.99 161.31C667.737 161.197 667.517 161.033 667.33 160.82C667.15 160.6 667.06 160.313 667.06 159.96C667.06 159.68 667.143 159.423 667.31 159.19C667.477 158.957 667.713 158.773 668.02 158.64C668.327 158.5 668.677 158.43 669.07 158.43C669.677 158.43 670.167 158.583 670.54 158.89C670.913 159.197 671.113 159.617 671.14 160.15H670.23C670.21 159.863 670.093 159.633 669.88 159.46C669.673 159.287 669.393 159.2 669.04 159.2C668.713 159.2 668.453 159.27 668.26 159.41C668.067 159.55 667.97 159.733 667.97 159.96C667.97 160.14 668.027 160.29 668.14 160.41C668.26 160.523 668.407 160.617 668.58 160.69C668.76 160.757 669.007 160.833 669.32 160.92C669.713 161.027 670.033 161.133 670.28 161.24C670.527 161.34 670.737 161.493 670.91 161.7C671.09 161.907 671.183 162.177 671.19 162.51C671.19 162.81 671.107 163.08 670.94 163.32C670.773 163.56 670.537 163.75 670.23 163.89C669.93 164.023 669.583 164.09 669.19 164.09ZM678.274 161.05C678.274 161.223 678.264 161.407 678.244 161.6H673.864C673.898 162.14 674.081 162.563 674.414 162.87C674.754 163.17 675.164 163.32 675.644 163.32C676.038 163.32 676.364 163.23 676.624 163.05C676.891 162.863 677.078 162.617 677.184 162.31H678.164C678.018 162.837 677.724 163.267 677.284 163.6C676.844 163.927 676.298 164.09 675.644 164.09C675.124 164.09 674.658 163.973 674.244 163.74C673.838 163.507 673.518 163.177 673.284 162.75C673.051 162.317 672.934 161.817 672.934 161.25C672.934 160.683 673.048 160.187 673.274 159.76C673.501 159.333 673.818 159.007 674.224 158.78C674.638 158.547 675.111 158.43 675.644 158.43C676.164 158.43 676.624 158.543 677.024 158.77C677.424 158.997 677.731 159.31 677.944 159.71C678.164 160.103 678.274 160.55 678.274 161.05ZM677.334 160.86C677.334 160.513 677.258 160.217 677.104 159.97C676.951 159.717 676.741 159.527 676.474 159.4C676.214 159.267 675.924 159.2 675.604 159.2C675.144 159.2 674.751 159.347 674.424 159.64C674.104 159.933 673.921 160.34 673.874 160.86H677.334ZM679.936 161.25C679.936 160.683 680.049 160.19 680.276 159.77C680.502 159.343 680.816 159.013 681.216 158.78C681.622 158.547 682.086 158.43 682.606 158.43C683.279 158.43 683.832 158.593 684.266 158.92C684.706 159.247 684.996 159.7 685.136 160.28H684.156C684.062 159.947 683.879 159.683 683.606 159.49C683.339 159.297 683.006 159.2 682.606 159.2C682.086 159.2 681.666 159.38 681.346 159.74C681.026 160.093 680.866 160.597 680.866 161.25C680.866 161.91 681.026 162.42 681.346 162.78C681.666 163.14 682.086 163.32 682.606 163.32C683.006 163.32 683.339 163.227 683.606 163.04C683.872 162.853 684.056 162.587 684.156 162.24H685.136C684.989 162.8 684.696 163.25 684.256 163.59C683.816 163.923 683.266 164.09 682.606 164.09C682.086 164.09 681.622 163.973 681.216 163.74C680.816 163.507 680.502 163.177 680.276 162.75C680.049 162.323 679.936 161.823 679.936 161.25ZM688.26 159.27V162.5C688.26 162.767 688.317 162.957 688.43 163.07C688.543 163.177 688.74 163.23 689.02 163.23H689.69V164H688.87C688.363 164 687.983 163.883 687.73 163.65C687.477 163.417 687.35 163.033 687.35 162.5V159.27H686.64V158.52H687.35V157.14H688.26V158.52H689.69V159.27H688.26ZM692.062 157.63C691.889 157.63 691.742 157.57 691.622 157.45C691.502 157.33 691.442 157.183 691.442 157.01C691.442 156.837 691.502 156.69 691.622 156.57C691.742 156.45 691.889 156.39 692.062 156.39C692.229 156.39 692.369 156.45 692.482 156.57C692.602 156.69 692.662 156.837 692.662 157.01C692.662 157.183 692.602 157.33 692.482 157.45C692.369 157.57 692.229 157.63 692.062 157.63ZM692.502 158.52V164H691.592V158.52H692.502ZM697.243 164.09C696.73 164.09 696.263 163.973 695.843 163.74C695.43 163.507 695.103 163.177 694.863 162.75C694.63 162.317 694.513 161.817 694.513 161.25C694.513 160.69 694.633 160.197 694.873 159.77C695.12 159.337 695.453 159.007 695.873 158.78C696.293 158.547 696.763 158.43 697.283 158.43C697.803 158.43 698.273 158.547 698.693 158.78C699.113 159.007 699.443 159.333 699.683 159.76C699.93 160.187 700.053 160.683 700.053 161.25C700.053 161.817 699.927 162.317 699.673 162.75C699.427 163.177 699.09 163.507 698.663 163.74C698.237 163.973 697.763 164.09 697.243 164.09ZM697.243 163.29C697.57 163.29 697.877 163.213 698.163 163.06C698.45 162.907 698.68 162.677 698.853 162.37C699.033 162.063 699.123 161.69 699.123 161.25C699.123 160.81 699.037 160.437 698.863 160.13C698.69 159.823 698.463 159.597 698.183 159.45C697.903 159.297 697.6 159.22 697.273 159.22C696.94 159.22 696.633 159.297 696.353 159.45C696.08 159.597 695.86 159.823 695.693 160.13C695.527 160.437 695.443 160.81 695.443 161.25C695.443 161.697 695.523 162.073 695.683 162.38C695.85 162.687 696.07 162.917 696.343 163.07C696.617 163.217 696.917 163.29 697.243 163.29ZM704.72 158.42C705.387 158.42 705.927 158.623 706.34 159.03C706.753 159.43 706.96 160.01 706.96 160.77V164H706.06V160.9C706.06 160.353 705.923 159.937 705.65 159.65C705.377 159.357 705.003 159.21 704.53 159.21C704.05 159.21 703.667 159.36 703.38 159.66C703.1 159.96 702.96 160.397 702.96 160.97V164H702.05V158.52H702.96V159.3C703.14 159.02 703.383 158.803 703.69 158.65C704.003 158.497 704.347 158.42 704.72 158.42ZM709.416 158.05H710.566L712.986 160.34L710.566 162.64H709.416L711.836 160.34L709.416 158.05Z" fill="white"/>
<rect x="673.814" y="187.951" width="58.3729" height="5.98361" fill="#C4C4C4"/>
<rect x="674" y="178" width="55" height="6" fill="#C4C4C4"/>
<rect x="674" y="199" width="48" height="6" fill="#C4C4C4"/>
<rect x="673.814" y="209.492" width="58.3729" height="5.98361" fill="#C4C4C4"/>
<rect x="674" y="220" width="40" height="6" fill="#C4C4C4"/>
<path d="M667.537 177.655H664.567L667.042 173.425H668.992L667.537 177.655ZM671.407 177.655H668.437L670.912 173.425H672.862L671.407 177.655Z" fill="#C4C4C4"/>
<path opacity="0.9" d="M738.463 232.345H741.433L738.958 236.575H737.008L738.463 232.345ZM734.593 232.345H737.563L735.088 236.575H733.138L734.593 232.345Z" fill="#C4C4C4"/>
<g filter="url(#filter2_d_5_220)">
<line x1="223.5" y1="355" x2="223.5" y2="418" stroke="black" stroke-width="5"/>
</g>
<g filter="url(#filter3_d_5_220)">
<line x1="303.5" y1="355" x2="303.5" y2="418" stroke="black" stroke-width="5"/>
</g>
<g filter="url(#filter4_d_5_220)">
<line x1="187" y1="415.5" x2="336" y2="415.5" stroke="black" stroke-width="5"/>
</g>
<g filter="url(#filter5_d_5_220)">
<line x1="630.5" y1="357" x2="630.5" y2="420" stroke="black" stroke-width="5"/>
</g>
<g filter="url(#filter6_d_5_220)">
<line x1="710.5" y1="357" x2="710.5" y2="420" stroke="black" stroke-width="5"/>
</g>
<g filter="url(#filter7_d_5_220)">
<line x1="594" y1="417.5" x2="743" y2="417.5" stroke="black" stroke-width="5"/>
</g>
<defs>
<filter id="filter0_d_5_220" x="571" y="0" width="213" height="376" filterUnits="userSpaceOnUse" color-interpolation-filters="sRGB">
<feFlood flood-opacity="0" result="BackgroundImageFix"/>
<feColorMatrix in="SourceAlpha" type="matrix" values="0 0 0 0 0 0 0 0 0 0 0 0 0 0 0 0 0 0 127 0" result="hardAlpha"/>
<feOffset dx="14" dy="15"/>
<feGaussianBlur stdDeviation="2"/>
<feComposite in2="hardAlpha" operator="out"/>
<feColorMatrix type="matrix" values="0 0 0 0 0 0 0 0 0 0 0 0 0 0 0 0 0 0 0.25 0"/>
<feBlend mode="normal" in2="BackgroundImageFix" result="effect1_dropShadow_5_220"/>
<feBlend mode="normal" in="SourceGraphic" in2="effect1_dropShadow_5_220" result="shape"/>
</filter>
<filter id="filter1_d_5_220" x="0" y="118" width="561" height="263" filterUnits="userSpaceOnUse" color-interpolation-filters="sRGB">
<feFlood flood-opacity="0" result="BackgroundImageFix"/>
<feColorMatrix in="SourceAlpha" type="matrix" values="0 0 0 0 0 0 0 0 0 0 0 0 0 0 0 0 0 0 127 0" result="hardAlpha"/>
<feOffset dx="14" dy="20"/>
<feGaussianBlur stdDeviation="2"/>
<feComposite in2="hardAlpha" operator="out"/>
<feColorMatrix type="matrix" values="0 0 0 0 0 0 0 0 0 0 0 0 0 0 0 0 0 0 0.25 0"/>
<feBlend mode="normal" in2="BackgroundImageFix" result="effect1_dropShadow_5_220"/>
<feBlend mode="normal" in="SourceGraphic" in2="effect1_dropShadow_5_220" result="shape"/>
</filter>
<filter id="filter2_d_5_220" x="221" y="355" width="16" height="63" filterUnits="userSpaceOnUse" color-interpolation-filters="sRGB">
<feFlood flood-opacity="0" result="BackgroundImageFix"/>
<feColorMatrix in="SourceAlpha" type="matrix" values="0 0 0 0 0 0 0 0 0 0 0 0 0 0 0 0 0 0 127 0" result="hardAlpha"/>
<feOffset dx="11"/>
<feComposite in2="hardAlpha" operator="out"/>
<feColorMatrix type="matrix" values="0 0 0 0 0 0 0 0 0 0 0 0 0 0 0 0 0 0 0.25 0"/>
<feBlend mode="normal" in2="BackgroundImageFix" result="effect1_dropShadow_5_220"/>
<feBlend mode="normal" in="SourceGraphic" in2="effect1_dropShadow_5_220" result="shape"/>
</filter>
<filter id="filter3_d_5_220" x="301" y="355" width="16" height="63" filterUnits="userSpaceOnUse" color-interpolation-filters="sRGB">
<feFlood flood-opacity="0" result="BackgroundImageFix"/>
<feColorMatrix in="SourceAlpha" type="matrix" values="0 0 0 0 0 0 0 0 0 0 0 0 0 0 0 0 0 0 127 0" result="hardAlpha"/>
<feOffset dx="11"/>
<feComposite in2="hardAlpha" operator="out"/>
<feColorMatrix type="matrix" values="0 0 0 0 0 0 0 0 0 0 0 0 0 0 0 0 0 0 0.25 0"/>
<feBlend mode="normal" in2="BackgroundImageFix" result="effect1_dropShadow_5_220"/>
<feBlend mode="normal" in="SourceGraphic" in2="effect1_dropShadow_5_220" result="shape"/>
</filter>
<filter id="filter4_d_5_220" x="187" y="413" width="160" height="5" filterUnits="userSpaceOnUse" color-interpolation-filters="sRGB">
<feFlood flood-opacity="0" result="BackgroundImageFix"/>
<feColorMatrix in="SourceAlpha" type="matrix" values="0 0 0 0 0 0 0 0 0 0 0 0 0 0 0 0 0 0 127 0" result="hardAlpha"/>
<feOffset dx="11"/>
<feComposite in2="hardAlpha" operator="out"/>
<feColorMatrix type="matrix" values="0 0 0 0 0 0 0 0 0 0 0 0 0 0 0 0 0 0 0.25 0"/>
<feBlend mode="normal" in2="BackgroundImageFix" result="effect1_dropShadow_5_220"/>
<feBlend mode="normal" in="SourceGraphic" in2="effect1_dropShadow_5_220" result="shape"/>
</filter>
<filter id="filter5_d_5_220" x="628" y="357" width="16" height="63" filterUnits="userSpaceOnUse" color-interpolation-filters="sRGB">
<feFlood flood-opacity="0" result="BackgroundImageFix"/>
<feColorMatrix in="SourceAlpha" type="matrix" values="0 0 0 0 0 0 0 0 0 0 0 0 0 0 0 0 0 0 127 0" result="hardAlpha"/>
<feOffset dx="11"/>
<feComposite in2="hardAlpha" operator="out"/>
<feColorMatrix type="matrix" values="0 0 0 0 0 0 0 0 0 0 0 0 0 0 0 0 0 0 0.25 0"/>
<feBlend mode="normal" in2="BackgroundImageFix" result="effect1_dropShadow_5_220"/>
<feBlend mode="normal" in="SourceGraphic" in2="effect1_dropShadow_5_220" result="shape"/>
</filter>
<filter id="filter6_d_5_220" x="708" y="357" width="16" height="63" filterUnits="userSpaceOnUse" color-interpolation-filters="sRGB">
<feFlood flood-opacity="0" result="BackgroundImageFix"/>
<feColorMatrix in="SourceAlpha" type="matrix" values="0 0 0 0 0 0 0 0 0 0 0 0 0 0 0 0 0 0 127 0" result="hardAlpha"/>
<feOffset dx="11"/>
<feComposite in2="hardAlpha" operator="out"/>
<feColorMatrix type="matrix" values="0 0 0 0 0 0 0 0 0 0 0 0 0 0 0 0 0 0 0.25 0"/>
<feBlend mode="normal" in2="BackgroundImageFix" result="effect1_dropShadow_5_220"/>
<feBlend mode="normal" in="SourceGraphic" in2="effect1_dropShadow_5_220" result="shape"/>
</filter>
<filter id="filter7_d_5_220" x="594" y="415" width="160" height="5" filterUnits="userSpaceOnUse" color-interpolation-filters="sRGB">
<feFlood flood-opacity="0" result="BackgroundImageFix"/>
<feColorMatrix in="SourceAlpha" type="matrix" values="0 0 0 0 0 0 0 0 0 0 0 0 0 0 0 0 0 0 127 0" result="hardAlpha"/>
<feOffset dx="11"/>
<feComposite in2="hardAlpha" operator="out"/>
<feColorMatrix type="matrix" values="0 0 0 0 0 0 0 0 0 0 0 0 0 0 0 0 0 0 0.25 0"/>
<feBlend mode="normal" in2="BackgroundImageFix" result="effect1_dropShadow_5_220"/>
<feBlend mode="normal" in="SourceGraphic" in2="effect1_dropShadow_5_220" result="shape"/>
</filter>
</defs>
</svg>
