<svg width="72" height="72" viewBox="0 0 72 72" fill="none" xmlns="http://www.w3.org/2000/svg">
<path d="M15.3 72C10.6333 72 6.9 70.6333 4.1 67.9C1.36667 65.1667 0 61.5 0 56.9C0 52.0333 1.43333 48.2667 4.3 45.6C7.23333 42.8667 11.5333 41.5 17.2 41.5H54C59.7333 41.5 64.0333 42.8667 66.9 45.6C69.7667 48.2667 71.2 52.0333 71.2 56.9C71.2 61.5 69.8 65.1667 67 67.9C64.2667 70.6333 60.5667 72 55.9 72C52.1667 72 49.2 71.3 47 69.9C44.8667 68.5 43.3333 66.6333 42.4 64.3C41.5333 61.9667 41.1 59.4 41.1 56.6V15.4C41.1 12.6 41.5333 10.0333 42.4 7.7C43.3333 5.36667 44.8667 3.5 47 2.1C49.2 0.700001 52.1667 0 55.9 0C60.5667 0 64.2667 1.36667 67 4.1C69.8 6.83334 71.2 10.5 71.2 15.1C71.2 19.9667 69.7667 23.7667 66.9 26.5C64.0333 29.1667 59.7333 30.5 54 30.5H17.2C11.5333 30.5 7.23333 29.1667 4.3 26.5C1.43333 23.7667 0 19.9667 0 15.1C0 10.5 1.36667 6.83334 4.1 4.1C6.9 1.36667 10.6333 0 15.3 0C19.0333 0 21.9667 0.700001 24.1 2.1C26.3 3.5 27.8333 5.36667 28.7 7.7C29.6333 10.0333 30.1 12.6 30.1 15.4V56.6C30.1 59.4 29.6333 61.9667 28.7 64.3C27.8333 66.6333 26.3 68.5 24.1 69.9C21.9667 71.3 19.0333 72 15.3 72ZM15.3 65.1C17.9 65.1 19.8333 64.3667 21.1 62.9C22.4333 61.3667 23.1 59.3333 23.1 56.8V15.2C23.1 12.6667 22.4333 10.6667 21.1 9.2C19.8333 7.66667 17.9 6.9 15.3 6.9C12.9667 6.9 11 7.53333 9.4 8.8C7.86667 10.0667 7.1 12.1667 7.1 15.1C7.1 17.9667 7.9 20.1333 9.5 21.6C11.1 23 13.6667 23.7 17.2 23.7H54C57.5333 23.7 60.1 23 61.7 21.6C63.3 20.1333 64.1 17.9667 64.1 15.1C64.1 12.1667 63.3 10.0667 61.7 8.8C60.1667 7.53333 58.2333 6.9 55.9 6.9C53.3 6.9 51.3333 7.66667 50 9.2C48.7333 10.6667 48.1 12.6667 48.1 15.2V56.8C48.1 59.3333 48.7333 61.3667 50 62.9C51.3333 64.3667 53.3 65.1 55.9 65.1C58.2333 65.1 60.1667 64.4667 61.7 63.2C63.3 61.9333 64.1 59.8333 64.1 56.9C64.1 54.0333 63.3 51.9 61.7 50.5C60.1 49.0333 57.5333 48.3 54 48.3H17.2C13.6667 48.3 11.1 49.0333 9.5 50.5C7.9 51.9 7.1 54.0333 7.1 56.9C7.1 59.8333 7.86667 61.9333 9.4 63.2C11 64.4667 12.9667 65.1 15.3 65.1Z" fill="white"/>
<path d="M15.3 72C10.6333 72 6.9 70.6333 4.1 67.9C1.36667 65.1667 0 61.5 0 56.9C0 52.0333 1.43333 48.2667 4.3 45.6C7.23333 42.8667 11.5333 41.5 17.2 41.5H54C59.7333 41.5 64.0333 42.8667 66.9 45.6C69.7667 48.2667 71.2 52.0333 71.2 56.9C71.2 61.5 69.8 65.1667 67 67.9C64.2667 70.6333 60.5667 72 55.9 72C52.1667 72 49.2 71.3 47 69.9C44.8667 68.5 43.3333 66.6333 42.4 64.3C41.5333 61.9667 41.1 59.4 41.1 56.6V15.4C41.1 12.6 41.5333 10.0333 42.4 7.7C43.3333 5.36667 44.8667 3.5 47 2.1C49.2 0.700001 52.1667 0 55.9 0C60.5667 0 64.2667 1.36667 67 4.1C69.8 6.83334 71.2 10.5 71.2 15.1C71.2 19.9667 69.7667 23.7667 66.9 26.5C64.0333 29.1667 59.7333 30.5 54 30.5H17.2C11.5333 30.5 7.23333 29.1667 4.3 26.5C1.43333 23.7667 0 19.9667 0 15.1C0 10.5 1.36667 6.83334 4.1 4.1C6.9 1.36667 10.6333 0 15.3 0C19.0333 0 21.9667 0.700001 24.1 2.1C26.3 3.5 27.8333 5.36667 28.7 7.7C29.6333 10.0333 30.1 12.6 30.1 15.4V56.6C30.1 59.4 29.6333 61.9667 28.7 64.3C27.8333 66.6333 26.3 68.5 24.1 69.9C21.9667 71.3 19.0333 72 15.3 72ZM15.3 65.1C17.9 65.1 19.8333 64.3667 21.1 62.9C22.4333 61.3667 23.1 59.3333 23.1 56.8V15.2C23.1 12.6667 22.4333 10.6667 21.1 9.2C19.8333 7.66667 17.9 6.9 15.3 6.9C12.9667 6.9 11 7.53333 9.4 8.8C7.86667 10.0667 7.1 12.1667 7.1 15.1C7.1 17.9667 7.9 20.1333 9.5 21.6C11.1 23 13.6667 23.7 17.2 23.7H54C57.5333 23.7 60.1 23 61.7 21.6C63.3 20.1333 64.1 17.9667 64.1 15.1C64.1 12.1667 63.3 10.0667 61.7 8.8C60.1667 7.53333 58.2333 6.9 55.9 6.9C53.3 6.9 51.3333 7.66667 50 9.2C48.7333 10.6667 48.1 12.6667 48.1 15.2V56.8C48.1 59.3333 48.7333 61.3667 50 62.9C51.3333 64.3667 53.3 65.1 55.9 65.1C58.2333 65.1 60.1667 64.4667 61.7 63.2C63.3 61.9333 64.1 59.8333 64.1 56.9C64.1 54.0333 63.3 51.9 61.7 50.5C60.1 49.0333 57.5333 48.3 54 48.3H17.2C13.6667 48.3 11.1 49.0333 9.5 50.5C7.9 51.9 7.1 54.0333 7.1 56.9C7.1 59.8333 7.86667 61.9333 9.4 63.2C11 64.4667 12.9667 65.1 15.3 65.1Z" fill="white"/>
</svg>
